<svg xmlns="http://www.w3.org/2000/svg" viewBox="0 0 130 68"><path d="M117.25 10.29a7.09 7.09 0 1 0 7.07 7.07 7.08 7.08 0 0 0-7.07-7.07zm0 1a6.05 6.05 0 1 1-6 6 6 6 0 0 1 6-5.96zm-80.31 1.79a.48.48 0 0 0-.48.48v30.06a.48.48 0 0 0 .48.48h4.25a.48.48 0 0 0 .48-.48V13.56a.48.48 0 0 0-.48-.48zm32.38 0a.48.48 0 0 0-.48.48v30a.47.47 0 0 0 .48.48h4.26a.48.48 0 0 0 .48-.48v-9.22c0-3.55 2.08-6.57 4.73-6.57 1.92 0 2.48 1.26 2.48 3.38v12.47a.48.48 0 0 0 .48.48H86a.48.48 0 0 0 .48-.48V29.89c0-3.54-1.47-6.48-6-6.48a7.15 7.15 0 0 0-6.64 3.78h-.1a19.7 19.7 0 0 0 .32-4.19v-9.42a.48.48 0 0 0-.48-.48h-4.26zm50.81 0L113 15.72v1.76l2.36-.85V22l4.79-1.71v-7.1zM16.82 22.69c-3.92 0-7.68 3.87-9.68 7.09a20.38 20.38 0 0 0-2.53 6.81c-.36 2.56.06 5.35 2.63 6.81 3.89 2.22 8 .29 10.95-1.93.26-.18.52-.42.82-.67a21.87 21.87 0 0 0 1.88-1.8l.06-.07c.61-.64 1.24-1.33 1.87-2l.07.15c2.11 3.71 4.9 7.34 9.11 7.02.51-.09.5-.53.51-1.08v-3.47c0-.38-.28-.58-.78-.63a3 3 0 0 1-.93-.15c-1.13-.55-1.66-1.57-2.59-3.07-.61-1-1.18-2.06-1.76-3.17 1.2-1.47 5.89-7.4 5.89-7.4 1.32-1.81.59-1.93-.61-1.93h-3.81a1.47 1.47 0 0 0-1.06.4c-.32.4-.84 1.1-1.39 1.79s-1.15 1.52-1.72 2.24c-1.68-2.72-3.63-5-6.92-5zm85.09.21c-3.93 0-7.66 3.87-9.66 7.09a20.12 20.12 0 0 0-2.53 6.82c-.36 2.56.06 5.33 2.63 6.79 5.38 3.06 11.24-1.76 13.64-4.4a.84.84 0 0 0 .06-.93l-2.26-2.9c-.41-.49-.85-.54-1.41 0-1.43 1.4-2.2 2.55-4.49 3.54-1.68.73-2.62.34-3-.21-.88-1.42 1.56-5.39 1.85-5.91 1.87-3 3.84-4.44 5.1-4.5a1.77 1.77 0 0 1 1.21.61 11.2 11.2 0 0 1 1.48 2c1.07 1.78 2.18 4.09 3.41 6.3 2.11 3.78 4.8 7.2 9 6.88.51-.08.49-.51.49-1.06v-3.48c0-.38-.27-.57-.76-.61a3.2 3.2 0 0 1-.93-.15c-1.13-.55-1.53-1.39-2.45-2.87s-1.76-3.49-2.8-5.35c-2.15-3.86-4.25-7.69-8.66-7.69zm-44.15.33A6.61 6.61 0 0 0 51.4 27h-.09a20.46 20.46 0 0 0 .19-2.54v-.45a.47.47 0 0 0-.46-.48h-3.89a.48.48 0 0 0-.48.48v30.32a.48.48 0 0 0 .48.48h4.25a.49.49 0 0 0 .49-.48V44a17.41 17.41 0 0 0 2.6.16c7 0 10.68-4.44 10.68-11.49 0-6-2.61-9.45-7.42-9.45zm-1.51 4.27c2.36 0 3.47 2 3.47 5.74 0 5-2.17 6.88-5.1 6.88a9.18 9.18 0 0 1-2.72-.36v-5.62c0-3.46 1.62-6.64 4.35-6.64zm-39.45.58a1.78 1.78 0 0 1 1.2.62 10.84 10.84 0 0 1 1.53 2c.25.41.51.85.76 1.32-1 1.16-1.89 2.22-2.81 3.19a13.81 13.81 0 0 1-4.68 3.49c-1.68.73-2.61.34-2.95-.21-.87-1.42 1.56-5.4 1.85-5.92 1.88-3 3.83-4.43 5.09-4.49z" fill="#fff"/></svg>