<svg xmlns="http://www.w3.org/2000/svg" viewBox="0 0 148 68"><path d="M66.49 39.63a4.08 4.08 0 0 0-3.05-2.49C67.27 35.91 70 33 70 28.6c0-6.09-4.57-8.89-12.23-8.89-4.71 0-10.8.25-12 .25H42V23a18.88 18.88 0 0 0 4.08 2.11V47.9A14.5 14.5 0 0 0 42 50v3.1h15.2V50a12.52 12.52 0 0 0-2.85-2.06V39.7h1.47c5.11 0 3.34 13.95 10.85 13.95a15.69 15.69 0 0 0 5.65-.93L71.93 49c-3.35.67-3.5-5.68-5.44-9.37zm-12.14-15a10.16 10.16 0 0 1 2-.2c3.73 0 5.16 2.45 5.16 5.25C61.47 33 59.85 35 56.56 35h-2.21zM35.51 47.95l-2.86-8.31-6.81-19.78h-8.1L8.06 47.95a10 10 0 0 0-2.85 2v3.15h12.23V50a11.93 11.93 0 0 0-2.85-2l.93-3.09h10l1 3.09a12.34 12.34 0 0 0-3 2v3.1h14.35V50a9.61 9.61 0 0 0-2.36-2.05zm-18.66-7.72l3.49-11.93 3.78 11.93zM121.44 27.78l4.41-1.6v9.96l8.9-3.19V19.7l-13.31 4.78v3.3zM94.06 19.76c-4.47 0-10 .2-12.67.2h-4V23a21.57 21.57 0 0 0 4.08 2.16v22.69A14.62 14.62 0 0 0 77.42 50v3.1h4.12c1.47 0 6.68.2 10.26.2 9.43 0 16.85-4.77 18.47-13.66a21.28 21.28 0 0 0 .33-3.82c.01-11.59-5.88-16.06-16.54-16.06zm7.66 19.87c-.79 5.83-3.91 8.46-7.76 8.46a13.18 13.18 0 0 1-4.22-.49v-23a26.92 26.92 0 0 1 2.95-.15c7.37 0 9.23 5.6 9.23 12.08a22.86 22.86 0 0 1-.2 3.1z" fill="#fff"/><path d="M124 39.64a13.26 13.26 0 0 0 11 0 13.24 13.24 0 1 0-11 0m5.48-.75a11.29 11.29 0 1 1 11.29-11.29 11.29 11.29 0 0 1-11.33 11.28z" fill="#fff"/></svg>