<svg xmlns="http://www.w3.org/2000/svg" viewBox="0 0 69 68"><path d="M31.5 21.76c.67 0 1.68-.08 2.67 0 2.8.15 4 .67 5.29 1.67a5.51 5.51 0 0 1 1.95 4.26c0 2.12-1 4.31-4.07 5.56a20.91 20.91 0 0 1-5.47 1.23v.77a11.13 11.13 0 0 1 3.59 3.23c1.54 2 10.51 15.23 10.51 15.23h7.4S41.38 37 40.51 35.86c4.16-1.44 7.14-4.76 7.14-9.68a8.87 8.87 0 0 0-2.9-6.18c-1.49-1.27-3.66-2.78-10.63-2.95-1.44 0-5.83.12-5.83.12v.25a9.89 9.89 0 0 1 3.21 4.34zM56.81 28.56a7.12 7.12 0 1 0-7.12-7.12 7.12 7.12 0 0 0 7.12 7.12zm0-13.2a6.08 6.08 0 1 1-6.08 6.08 6.08 6.08 0 0 1 6.08-6.08zM31.37 42.35c0-4.42-2.77-7.34-7.14-8.35a8.66 8.66 0 0 0 4.67-7.84c0-3.94-2.34-9.15-12.14-9.15-4.13 0-8.65.13-9.76.17v36.51h8.1c10.65 0 16.27-3.92 16.27-11.34zM12.68 21.7h3c4.63 0 7.2 2.39 7.27 5.68a5.86 5.86 0 0 1-2.58 5.32 10.85 10.85 0 0 1-4 1.49V35a23.23 23.23 0 0 1 4.84 1.24c3 1.42 3.93 3.62 4 6.46 0 4.5-4.31 5.86-8.34 5.86h-4.19z" fill="#fff"/><path fill="#fff" d="M54.87 26.04l4.8-1.72v-7.13l-7.17 2.57v1.78l2.37-.86v5.36z"/></svg>