<svg xmlns="http://www.w3.org/2000/svg" viewBox="0 0 143 68"><path d="M23.69 15.41A18.79 18.79 0 0 0 5.46 34.2a18.79 18.79 0 0 0 37.54 0 18.79 18.79 0 0 0-18.75-18.8h-.55zm8 7.64v18.64L19.2 46.28V32.2l-6.1 2.14v-4.58L31.74 23zm92.14 3.3l-3 .78v3.56h-2V33h2v5.85c0 2.69.81 3.61 3.35 3.61a10.09 10.09 0 0 0 2.4-.3v-2.4a5.64 5.64 0 0 1-1.44.2c-1 0-1.36-.44-1.36-1.92V33h2.8v-2.31h-2.8v-4.34zm-66.79.1c-1.92 0-3.82.08-5 .13v15.59c1.32 0 2.72.1 4.34.1 5.09 0 8.63-2.8 8.63-8.17s-3.08-7.64-7.92-7.64zm35.41.1v15.64H101v-2.57h-5.48v-4.24h5.2v-2.44h-5.2v-3.86H101v-2.53zM55.88 29h1c3.56 0 4.87 2 4.87 5.35 0 3.7-2.13 5.35-5.07 5.35a11.2 11.2 0 0 1-1.64-.1V29.05l.83-.05zm15.28 1.41a12.67 12.67 0 0 0-4.14.73l.28 2.47a7.48 7.48 0 0 1 3.38-.91c1.67 0 2.24.64 2.24 1.84v.63c-3.91 0-6.63 1.46-6.63 4.21 0 1.85 1.2 3 3.28 3a3.9 3.9 0 0 0 3.68-2.19 13.08 13.08 0 0 0-.1 1.94H76c0-.95-.08-2-.08-3v-4.71c0-2.5-1-4-4.74-4zm11.75 0c-3.24 0-4.89 1.67-4.89 3.68 0 3.91 4.64 2.76 4.64 4.79 0 .76-.73 1.24-1.87 1.24a10.06 10.06 0 0 1-2.47-.35l-.08 2.45a15.94 15.94 0 0 0 2.42.2c3.15 0 5.12-1.54 5.12-3.81 0-3.73-4.72-2.89-4.72-4.77 0-.72.56-1.19 1.72-1.19a8 8 0 0 1 2.12.3l.1-2.32a13.29 13.29 0 0 0-2.09-.23zm26.81 0a3.5 3.5 0 0 0-3.65 2.59 15 15 0 0 0 .2-2.29h-2.8v11.5h3v-4.73c0-3.19 1.07-4.58 3.2-4.14l.15-2.93zm5.7 0c-3.24 0-4.89 1.67-4.89 3.68 0 3.91 4.67 2.76 4.67 4.79 0 .76-.76 1.24-1.89 1.24a10.05 10.05 0 0 1-2.47-.35l-.08 2.45a15.93 15.93 0 0 0 2.42.2c3.15 0 5.14-1.54 5.14-3.81 0-3.73-4.74-2.89-4.74-4.77 0-.72.56-1.19 1.71-1.19a8.15 8.15 0 0 1 2.14.3l.08-2.32a13.28 13.28 0 0 0-2.09-.23zm17.78 0c-3.45 0-5.4 2.61-5.4 6.13 0 4.05 2 5.88 5.7 5.88a11.37 11.37 0 0 0 4.11-.76l-.28-2.27a8.22 8.22 0 0 1-3.35.71c-2.13 0-3.2-1-3.18-3.2h7.14a9.69 9.69 0 0 0 .1-1.34c0-2.85-1.49-5.15-4.84-5.15zm-.1 2.19a2 2 0 0 1 2 2.29h-4.24a2.3 2.3 0 0 1 2.24-2.3zm-60.17 4.5v.28a2.64 2.64 0 0 1-2.45 2.77 1.21 1.21 0 0 1-1.36-1.24c0-.92.68-1.82 3.81-1.82z" fill="#fff"/></svg>