<svg xmlns="http://www.w3.org/2000/svg" viewBox="0 0 65 68"><path d="M53.77 24.35a7.12 7.12 0 1 0-7.12-7.11 7.12 7.12 0 0 0 7.12 7.11zm0-13.2a6.09 6.09 0 1 1-6.09 6.09 6.09 6.09 0 0 1 6.09-6.09zM36.32 31.91a3.41 3.41 0 0 1 1-2.91c1-.86 3.18-1 4.41-1.08l2.6-.16v-4.3a49.37 49.37 0 0 0-7.62.76c-3.25.74-5.35 2.72-5.63 5.74a15.65 15.65 0 0 0-.1 2.26v14.51h5.38z" fill="#fff"/><path fill="#fff" d="M51.84 21.85l4.8-1.72v-7.16l-7.16 2.6v1.77l2.36-.86v5.37zM11.79 28.49a19.84 19.84 0 0 1 4.94-.58c4.06 0 3.95 2.23 3.95 4v14.82H26V32.25v-2.37c-.19-3.59-2.75-6.34-7.84-6.41a36.23 36.23 0 0 0-6.56.72V13.06l-5.09.33v33.34h5.25zM36 57.88a90.64 90.64 0 0 0 28.85-4.94V50c-7.66 3-18.72 4.81-29.37 5-9.86.17-20.9-1.65-29-5.11v3C14.2 56.26 26.17 58 36 57.88z"/></svg>