<svg xmlns="http://www.w3.org/2000/svg" viewBox="0 0 122 68"><path d="M109.84 17.29a7.16 7.16 0 1 1-7.16 7.16 7.16 7.16 0 0 1 7.16-7.16m2.87 10.07v-7.17l-7.2 2.58v1.78l2.38-.85v5.39zm-2.87-9a6.11 6.11 0 1 0 6.11 6.11 6.1 6.1 0 0 0-6.11-6.11M89.27 37.21v-2.14A1.89 1.89 0 0 0 87.19 33h-7.81v3.72h3.3a1.47 1.47 0 0 1 1.64 1.64v9.37c0 .22 0 .33.19.38a.38.38 0 0 0 .4-.14c1.09-1.16 3.7-3.97 5.39-5.58 3.82-3.71 6.84-5.27 9.49-5.27v-4.53a11.12 11.12 0 0 0-6.48 1.55 19.4 19.4 0 0 0-4 3.08m-26.63-4.63a11.89 11.89 0 0 0-12 11.51 11.71 11.71 0 0 0 1.75 6.61H58a11.43 11.43 0 0 1-2.31-6.61 7 7 0 0 1 7-7c3.11 0 5.33 2.06 6.61 3.07 1.86 1.47 4.83 3.91 6.22 5.15a.39.39 0 0 0 .4.14c.14 0 .19-.16.19-.37V22.23A1.89 1.89 0 0 0 74 20.16h-7.81v3.72h3.19A1.47 1.47 0 0 1 71 25.52v10.55a11.32 11.32 0 0 0-8.34-3.48m-32.23 4.07a12 12 0 0 1 9.07-4.07 7.21 7.21 0 0 1 6.5 3.66 8.65 8.65 0 0 1 1 4.45v4.79h-5V41a5.47 5.47 0 0 0-.28-2 2.89 2.89 0 0 0-3-1.82c-2.27 0-4.19 1.6-5.78 3.09s-3.9 3.89-5 5.18a.37.37 0 0 1-.4.14c-.14 0-.19-.16-.19-.38v-4.4c0-2.47-1.31-3.63-3.43-3.63-2.53 0-4.6 2-7.08 4.42-1.93 1.89-3.71 3.79-6.2 6.4a.38.38 0 0 1-.4.14c-.14 0-.19-.16-.19-.37v-9.41a1.47 1.47 0 0 0-1.64-1.64H5.07V33h7.81A1.89 1.89 0 0 1 15 35.07v2.14s4.37-4.63 9.2-4.63c4.09 0 5.72 2.47 6.27 4.07" fill="#fff"/></svg>