<svg xmlns="http://www.w3.org/2000/svg" viewBox="0 0 98 68"><path d="M28.3.27h3.37v26.8H28.3zM28.3 55.56h3.37v12.17H28.3zM22.26 27.07h6v28.49h-6.67l-9.22-16.61v16.61h-6V27.07h6.31l9.63 17.75zM41.76 27.07c6.85 0 10.24 3.16 10.64 9.93v8.57c-.52 7.25-3.79 10-10.64 10H31.68v-28.5zm-.59 5.39h-3v17.73h3c3 0 5.1-1.25 5.1-5.23v-7.33c0-3.78-1.91-5.17-5.1-5.17M70.92 43.48c3.41-1.35 4.76-4.1 4.69-7.79-.11-5.62-2.91-8.62-10.34-8.62h-9.93v28.49h6.3V44.64h3.43l5.08 10.95H77zm-5.39-4h-4v-7.37h4c2.91 0 4 1 4 3.5s-1.53 3.87-4 3.87zM85.79 24.21a7.12 7.12 0 1 1-7.12 7.13 7.13 7.13 0 0 1 7.12-7.13m2.86 10v-7.12l-7.17 2.57v1.77l2.37-.86v5.36zm-2.86-9a6.08 6.08 0 1 0 6.08 6.08 6.08 6.08 0 0 0-6.08-6.08" fill="#fff"/></svg>