<svg xmlns="http://www.w3.org/2000/svg" viewBox="0 0 139 68"><path d="M22 53.54c-9.49 0-15.73-4.27-15.73-15.67 0-10.76 7.58-17.52 17.32-17.52 10.38 0 15.67 5.8 15.67 15.86-.03 10.58-7.74 17.33-17.26 17.33zm.89-23.25c-2.29 0-4.59 1.85-4.59 6.31 0 4.91 1.21 6.88 4.33 6.88s4.59-2.61 4.59-6.56c-.03-4.53-1.22-6.63-4.36-6.63zM59.81 52.77v-20c0-1.59-.45-2.61-1.78-2.61-2.55 0-5 3.69-5 7.2v15.41H41.46V21.12h10.7a27.77 27.77 0 0 1-.32 4.2h.06a11.86 11.86 0 0 1 10.13-5c7 0 9.36 4.59 9.36 10v22.45zM103.5 40.61h-18c.19 2.23 2.29 4 6.81 4a23.15 23.15 0 0 0 9.36-2l1 8.66a34.26 34.26 0 0 1-12.23 2.23c-10.64 0-16.69-5-16.69-16.18 0-9.81 5.54-17.07 15.8-17.07 9.81 0 14.27 6.56 14.27 15.35a33.82 33.82 0 0 1-.32 5.01zM89.36 28.7c-2.23 0-3.76 1.78-3.88 4.4h7.13c.13-3.1-1.21-4.4-3.25-4.4z" fill="#fff"/><path d="M120.85 14.46a13.15 13.15 0 1 1-13.15 13.15 13.15 13.15 0 0 1 13.15-13.15zm5.28 18.48V19.77l-13.24 4.75v3.28l4.38-1.58v9.9l8.86-3.17zm-5.28-16.55a11.22 11.22 0 1 0 11.22 11.22 11.22 11.22 0 0 0-11.22-11.22z" fill="#fff" fill-rule="evenodd"/></svg>