<svg xmlns="http://www.w3.org/2000/svg" viewBox="0 0 215 68"><path d="M15.9 22.34a11.66 11.66 0 0 0-2.12 23.12V34H18v11.46a11.66 11.66 0 0 0-2.1-23.12m0-4.25A15.91 15.91 0 1 1 0 34a15.9 15.9 0 0 1 15.9-15.9M39.76 34.5c0-1.63-.09-3.23-.12-4.86h1.66c0 .92.09 1.84.12 2.49h.06c1.14-2.25 2.46-2.71 4.18-2.71v1.91c-2.83 0-4.12 1.23-4.12 4.12v9.87h-1.78zm15.81 2.92c-3.69 0-6.8 0-6.8 3.57a2.85 2.85 0 0 0 2.89 2.88c.83 0 3.91-.33 3.91-4.61v-1.84zm1.66 4.4c0 1.17.09 2.34.18 3.51h-1.6l-.13-2.25h-.06a4.67 4.67 0 0 1-4.4 2.46A4.42 4.42 0 0 1 46.86 41c0-5 5.32-5.11 7.57-5.11h1.14c0-2 0-4.8-3.26-4.8a6.53 6.53 0 0 0-3.94 1.63l-.28-1.91a8.33 8.33 0 0 1 4.31-1.38c4.83 0 4.83 4.06 4.83 5.2v7.2zm5.5-4.34c0 1.29 0 6.39 3.57 6.39 3 0 3.87-3 3.87-6.21 0-2.1 0-6.59-3.84-6.59-2.68 0-3.6 2.77-3.6 6.4m9.1 2.65c0 2.46.06 3.84.13 5.19H70.3v-2.14h-.06c-1.17 1.47-2.15 2.37-4.12 2.37-5.1 0-5.29-6.46-5.29-8.64 0-3 1.26-7.48 5.2-7.48a4.08 4.08 0 0 1 4 2.25h.06v-9.42h1.78v17.88zm4.33-16.74h2.15v2.77h-2.14zm.18 6.25h1.79v15.69h-1.78zm11.47 15.9c-4.58 0-5.87-4.12-5.87-8.06s1.29-8.06 5.87-8.06 5.88 4.12 5.88 8.06-1.29 8.06-5.88 8.06m0-1.66c4 0 4-5.14 4-6.4s0-6.4-4-6.4-4 5.14-4 6.4 0 6.4 4 6.4m13.35-6.52c0 3 .77 5.41 3 5.41s2.8-1.85 2.8-5.5c0-3.17-.74-5.23-2.86-5.23s-3 2.25-3 5.32m0-15.1v9.5h.06a4.25 4.25 0 0 1 4.09-2.52c3.42 0 5.48 3 5.48 8.18 0 4.4-1.63 8.15-5.56 8.15a4.27 4.27 0 0 1-4.17-2.69h-.09a20 20 0 0 1-.12 2.46h-3.55a19.88 19.88 0 0 0 .13-2.7V22.25zm13.07 23.07h3.81v-8.67c0-3 1.72-3.9 3.3-3.9a4.07 4.07 0 0 1 1.07.15v-3.57a3.7 3.7 0 0 0-.65-.09 4.42 4.42 0 0 0-4 3.13h-.06c0-1-.09-1.94-.12-2.89h-3.44a21.49 21.49 0 0 1 .12 2.61v13.23zM133.06 36c0-2.8-.92-4.21-2.64-4.21-2 0-2.83 2.12-2.83 4.21zm2.94 8.55a11.69 11.69 0 0 1-4.74 1c-5.11 0-7.32-3.66-7.32-7.94 0-4.74 2.49-8.4 6.52-8.4 3.41 0 6.33 2 6.33 8.46v.73h-9.16c0 2.71 1.07 4.34 4 4.34a6.32 6.32 0 0 0 4.16-1.23zm4.28.77H144v-9.6c0-1.75.89-3.35 2.59-3.35 1.42 0 2 1 2 3v10h3.81v-9.6c0-1.75.9-3.35 2.59-3.35 1.42 0 2 1 2 3v10h3.81v-9.88c0-3.84-1.11-6.3-4.55-6.3a4.92 4.92 0 0 0-4.25 2.52 4.09 4.09 0 0 0-4-2.52 4.4 4.4 0 0 0-4 2.74c0-.83-.09-1.66-.12-2.49h-3.82a25.15 25.15 0 0 1 .13 2.58v13.25zM173.31 36c0-2.8-.92-4.21-2.65-4.21-2 0-2.83 2.12-2.83 4.21zm2.89 8.52a11.69 11.69 0 0 1-4.74 1c-5.1 0-7.32-3.66-7.32-7.94 0-4.74 2.49-8.4 6.52-8.4 3.42 0 6.34 2 6.34 8.46v.73h-9.17c0 2.71 1.07 4.34 4 4.34a6.3 6.3 0 0 0 4.17-1.17zm4.37.77h3.81V36.1c0-2 .71-3.73 2.71-3.73 1.57 0 2.18 1 2.18 3.44v9.51h3.81V35.11c0-3.2-1.08-5.87-4.68-5.87a4.62 4.62 0 0 0-4.21 2.67h-.06c0-.8-.09-1.63-.12-2.43h-3.57a21.26 21.26 0 0 1 .13 2.61zm25.13-15.91l-4.79 1.72v-5.36l-2.37.85v-1.76l7.16-2.57v7.12zm-2.85-9a6.07 6.07 0 1 1-6.07 6.07 6.07 6.07 0 0 1 6.07-6.07zm0-1A7.12 7.12 0 1 0 210 26.5a7.12 7.12 0 0 0-7.11-7.11z" fill="#fff"/></svg>