<svg xmlns="http://www.w3.org/2000/svg" viewBox="0 0 100 68"><path d="M87.58 54.83H5.76v-39.6h89.79c.13 0 .46-.25.45.19a2.56 2.56 0 0 0-.11.32L92 33.85zM36 24v20.9c0 .46.14.61.58.63.75 0 1.49.14 2.24.22a55 55 0 0 0 12.24.07 16.38 16.38 0 0 0 4.36-1.08 1.42 1.42 0 0 0 1-1.16c.15-1 .36-2.07.43-3.12a24.59 24.59 0 0 0-.32-6.46 1.93 1.93 0 0 0-1.35-1.59 29.79 29.79 0 0 0-11.32-1.66c-1.48 0-3 .21-4.5.32V24zm24.33 0v20.55c0 .88 0 .89.88 1a62.81 62.81 0 0 0 13.39.37 18.63 18.63 0 0 0 5-1.11 1.6 1.6 0 0 0 1.15-1.36c.14-1.22.36-2.44.42-3.67a21.11 21.11 0 0 0-.41-6 1.63 1.63 0 0 0-1.1-1.28 29.69 29.69 0 0 0-12.15-1.71c-1.26.05-2.52.2-3.85.3V24zM18.04 46v-.67-8.42a.65.65 0 0 1 .55-.77 38.47 38.47 0 0 1 7.81-1.45c1.86-.16 3.73-.21 5.6-.33.13 0 .37-.16.37-.25v-3.15a3.44 3.44 0 0 0-.36 0 57.9 57.9 0 0 0-10.41.94 27.67 27.67 0 0 0-6.5 2 .71.71 0 0 0-.47.76v11c0 .22 0 .44.31.44z" fill="#fff"/><path d="M39.39 34.63a34.77 34.77 0 0 1 6.76-.41 28.77 28.77 0 0 1 6.71 1 .63.63 0 0 1 .54.63 26.87 26.87 0 0 1 .06 5.4.71.71 0 0 1-.64.77 35.82 35.82 0 0 1-9.07.59c-1.32-.06-2.63-.17-3.95-.26-.28 0-.46-.05-.46-.42v-7.12a1.56 1.56 0 0 1 .05-.18zM63.7 38.45v-3.41c0-.26 0-.42.35-.47a32.5 32.5 0 0 1 12.91.6.91.91 0 0 1 .81 1 28.23 28.23 0 0 1 0 5.34.5.5 0 0 1-.45.52 25.68 25.68 0 0 1-6.1.66c-2.35 0-4.7-.19-7-.28-.37 0-.48-.16-.47-.52-.04-1.17-.05-2.3-.05-3.44z" fill="#fff"/></svg>