<svg xmlns="http://www.w3.org/2000/svg" viewBox="0 0 74 68"><path d="M39.66 19.19c3.17 0 4.51 1.42 4.51 3.63 0 2.45-1.82 3.95-4.68 3.95-.64 0-1.35-.07-1.69-.07v-7.37a11.56 11.56 0 0 1 1.86-.15m25-5.3l-7.24 2.6v1.75l2.41-.87v5.29L64.69 21zm-24.5-.15c-3.52 0-6.69.07-9.15.22v28.8h6.79V31.51h.26L45 42.75h8.24L47 33.49c-.73-1-1.48-2.13-2.25-3.24a8.14 8.14 0 0 0 6.46-8c0-6.1-4.17-8.53-11.07-8.53m-20.45-.25C12.4 13.48 8.1 17 8.1 22.43c0 9.64 11.66 7.19 11.66 12.09 0 2-1.77 3-4.24 3a21.08 21.08 0 0 1-6.17-1L9 42.59a25.25 25.25 0 0 0 6 .7c7.47 0 12-4.19 12-9.71 0-9-11.67-7.36-11.67-11.79 0-1.66 1.31-2.85 4.13-2.85a19.61 19.61 0 0 1 5.21.79l.38-5.78a33.74 33.74 0 0 0-5.32-.47m42.07-1.42a6.05 6.05 0 1 1-6.14 6.09 6.09 6.09 0 0 1 6.14-6.09m0-1a7.08 7.08 0 1 0 7.2 7.09A7.14 7.14 0 0 0 61.8 11M7.87 57h45.54V45.83H7.87z" fill="#fff"/></svg>