<svg xmlns="http://www.w3.org/2000/svg" viewBox="0 0 141 68"><path d="M75.69 36a8.47 8.47 0 0 0 6.63-8.48c0-6.5-4.22-9.1-11.47-9.1-3.69 0-7 0-9.59.23v30.66h7.08v-12h.27l7.3 12h8.61l-6.48-9.85c-.76-1.12-1.53-2.26-2.35-3.46zm-5.56-3.7a16.14 16.14 0 0 1-1.78-.09v-7.84c.41 0 1.23-.09 2-.09 3.33 0 4.74 1.45 4.74 3.86-.04 2.57-1.95 4.16-4.96 4.16zM13.81 26.88c0-1.73 1.41-3 4.38-3a23.08 23.08 0 0 1 5.83 1v-6.25a31.22 31.22 0 0 0-5.56-.63c-7.69 0-12.35 3.8-12.22 9.56.23 10.16 12.27 7.58 12.27 12.8 0 2.18-1.87 3.27-4.47 3.27a20.65 20.65 0 0 1-6.54-1.29l-.31 6.71a28.56 28.56 0 0 0 6.31.69c7.82 0 12.58-4.42 12.58-10.37-.01-9.55-12.27-7.73-12.27-12.49zM49.31 37.66l-3.08-18.98h-7.14l-3.08 18.98-3.09-18.98h-7.14l5.42 30.65H39.19l3.47-19.67 3.47 19.67h7.99l5.41-30.65H52.4l-3.09 18.98zM89.73 16.98v11.07L95.68 34l-5.95 5.95v11.07L106.62 34 89.73 16.98z" fill="#fff"/><path fill="#fff" d="M104.91 28.05l5.94 5.95-5.94 5.95v11.07L121.79 34l-16.88-17.02v11.07zM124.51 23.87l2.38-.87v5.42l4.83-1.73v-7.21l-7.21 2.6v1.79z"/><path d="M128.84 16.58a7.19 7.19 0 1 0 7.16 7.19 7.17 7.17 0 0 0-7.16-7.19zm0 13.33a6.14 6.14 0 1 1 6.16-6.14 6.13 6.13 0 0 1-6.16 6.14z" fill="#fff"/></svg>