<svg xmlns="http://www.w3.org/2000/svg" viewBox="0 0 115 68"><path d="M68.93 49.26h7.73v-9.87h.59c.87 0 3.1-.05 4.3 1.9l4.74 8h8.3L90.29 42a14.28 14.28 0 0 0-3.53-4.41v-.08a7.74 7.74 0 0 0 5.45-7.69c0-5.62-4-8.52-11.15-8.52H68.93V31h-.07c-1.47-5.85-6.4-9.7-15.43-9.7H36.37l-2.6 11.42c-.55 2.36-1 5.34-1 5.34h-.08s-.59-3.32-1.13-5.67l-2.25-11.08h-9.37l-2.22 11.08c-.55 2.35-1.13 5.67-1.13 5.67h-.09s-.46-3-1-5.34L12.9 21.3H4.41l7.46 28h8.53l4.24-17.93h.08L29 49.26h8.39L43.58 26h.08v23.26h9.53c9.15 0 14.19-4.2 15.68-10.19h.06v10.19zm-15.11-6.33h-2.35V27.65h2.14c5.12 0 7.43 2.27 7.43 7.48s-2.31 7.81-7.22 7.81m27.06-9.45h-4.22v-6.26h4c2.64 0 3.73 1 3.73 3.15 0 1.93-1.14 3.11-3.49 3.11M105.72 28.69v-7.21l-7.21 2.6v1.79l2.38-.87v5.42zm-2.88-10.11a7.19 7.19 0 1 1-7.15 7.19 7.18 7.18 0 0 1 7.15-7.19m0 1.05a6.14 6.14 0 1 0 6.16 6.14 6.13 6.13 0 0 0-6.11-6.14" fill="#fff"/></svg>