<svg version="1.1" xmlns="http://www.w3.org/2000/svg" viewBox="0 0 48 48">
	<polygon points="28.3,23.4 30.7,26 30.7,19.8 33.8,19.8 33.8,17.8 25.2,17.8 25.2,19.8 28.3,19.8" fill="#fff"/>
	<path d="M21.6,24.8v0.6c0,1-0.2,1.8-0.6,2.2c-0.4,0.4-1.1,0.6-2,0.6c-0.5,0-0.9-0.1-1.2-0.2s-0.6-0.3-0.8-0.5
		c-0.2-0.2-0.3-0.5-0.4-0.8c-0.1-0.3-0.1-0.7-0.1-1.1v-6.6l-1.1-1.2h-1.2v7.9c0,0.6,0.1,1.1,0.2,1.7c0.1,0.5,0.4,1,0.7,1.4
		c0.3,0.4,0.8,0.7,1.4,1c0.6,0.2,1.4,0.4,2.3,0.4c1.6,0,2.8-0.4,3.7-1.2c0.5-0.5,0.9-1.1,1.1-1.9L21.6,24.8z" fill="#fff"/>
	<path d="M32,33c-0.3,0-0.5-0.1-0.7-0.3l-16-18c-0.4-0.4-0.3-1,0.1-1.4c0.4-0.4,1-0.3,1.4,0.1l16,18c0.4,0.4,0.3,1-0.1,1.4
		C32.5,32.9,32.2,33,32,33z" fill="#fff"/>
</svg>
