<?xml version="1.0" encoding="utf-8"?>
<!-- Generator: Adobe Illustrator 22.1.0, SVG Export Plug-In . SVG Version: 6.00 Build 0)  -->
<svg version="1.1" id="Layer_1" xmlns="http://www.w3.org/2000/svg" xmlns:xlink="http://www.w3.org/1999/xlink" x="0px" y="0px"
	 viewBox="0 0 48 48" style="enable-background:new 0 0 48 48;" xml:space="preserve">
<style type="text/css">
	.st0{fill:#FFFFFF;}
</style>
<path class="st0" d="M27.5,30v-1.8l4.4-7.1c0.1-0.2,0.3-0.4,0.4-0.6s0.3-0.4,0.4-0.6h-5v-2.1h7.8v1.9L30.8,27
	c-0.1,0.1-0.2,0.3-0.3,0.4s-0.2,0.3-0.3,0.4h5.3V30H27.5z M24,26c-1.1,0-2-0.9-2-2s0.9-2,2-2s2,0.9,2,2S25.1,26,24,26z M18.3,30.1
	l-0.8-2.5h-4.6L12,30.1H9.7L13.9,18h2.6l4.3,12.2h-2.5V30.1z M15.7,22.6c-0.1-0.3-0.2-0.7-0.3-1s-0.2-0.6-0.2-1
	c-0.1,0.6-0.3,1.3-0.6,2l-1.1,3.1h3.4C16.9,25.7,15.7,22.6,15.7,22.6z"/>
</svg>
