<?xml version="1.0" encoding="utf-8"?>
<!-- Generator: Adobe Illustrator 22.1.0, SVG Export Plug-In . SVG Version: 6.00 Build 0)  -->
<svg version="1.1" id="Layer_1" xmlns="http://www.w3.org/2000/svg" xmlns:xlink="http://www.w3.org/1999/xlink" x="0px" y="0px"
	 viewBox="0 0 48 48" style="enable-background:new 0 0 48 48;" xml:space="preserve">
<style type="text/css">
	.st0{fill:#FFFFFF;}
</style>
<path class="st0" d="M13,16v16h22V16H13z M32.6,28.2c0.4,0.4,0.5,1,0.1,1.4c-0.2,0.2-0.5,0.3-0.8,0.3c-0.2,0-0.5-0.1-0.7-0.2
	l-5.1-4.4L24,27.2l-2.2-1.9l-5.1,4.4c-0.2,0.2-0.4,0.2-0.7,0.2s-0.6-0.1-0.8-0.3c-0.4-0.4-0.3-1,0.1-1.4l4.9-4.2l-4.9-4.2
	c-0.4-0.4-0.5-1-0.1-1.4s1-0.5,1.4-0.1l7.3,6.4l7.3-6.4c0.4-0.4,1-0.3,1.4,0.1s0.3,1-0.1,1.4L27.6,24L32.6,28.2z"/>
</svg>
