<?xml version="1.0" encoding="utf-8"?>
<!-- Generator: Adobe Illustrator 22.1.0, SVG Export Plug-In . SVG Version: 6.00 Build 0)  -->
<svg version="1.1" id="Layer_1" xmlns="http://www.w3.org/2000/svg" xmlns:xlink="http://www.w3.org/1999/xlink" x="0px" y="0px"
	 viewBox="0 0 48 48" style="enable-background:new 0 0 48 48;" xml:space="preserve">
<style type="text/css">
	.st0{fill:#FFFFFF;}
</style>
<path class="st0" d="M28,19.4c0,0.7-0.1,1.3-0.4,1.9c-0.3,0.5-0.6,1-1,1.4s-0.8,0.9-1.2,1.2c-0.4,0.4-0.8,0.8-1.1,1.3
	c-0.3,0.5-0.5,1-0.6,1.6s0,1.3,0.3,2.2h-2.4c-0.3-0.9-0.4-1.7-0.4-2.4c0.1-0.7,0.2-1.3,0.5-1.8s0.6-1,1-1.4l1.2-1.2
	c0.4-0.4,0.7-0.8,1-1.2c0.3-0.4,0.4-0.9,0.4-1.4s-0.1-0.9-0.4-1.3s-0.6-0.7-1.1-1s-1-0.5-1.7-0.7s-1.4-0.3-2.2-0.4l0.3-2.3
	c1.2,0.1,2.3,0.3,3.2,0.6c1,0.3,1.8,0.7,2.4,1.2C27.3,17,27.9,18.3,28,19.4z M24.6,32.3c0,0.5-0.2,0.9-0.5,1.2S23.4,34,22.9,34
	s-0.9-0.2-1.2-0.5c-0.3-0.3-0.5-0.7-0.5-1.2s0.2-0.9,0.5-1.2c0.3-0.3,0.7-0.5,1.2-0.5s0.9,0.2,1.2,0.5
	C24.4,31.5,24.6,31.9,24.6,32.3z"/>
</svg>
