<svg version="1.1" xmlns="http://www.w3.org/2000/svg" viewBox="0 0 48 48">
	<path d="M24,36.9l-5.7-5.7c-0.4-0.4-0.4-1,0-1.4s1-0.4,1.4,0l4.3,4.3l4.3-4.3c0.4-0.4,1-0.4,1.4,0s0.4,1,0,1.4L24,36.9z"  fill="#fff"/>
	<path d="M15,23h-2v-2h2V23z M31,21H17v2h14V21z M35,21h-2v2h2V21z"  fill="#fff"/>
	<path d="M15,20h-2v-2h2V20z M19,18h-2v2h2V18z M23,18h-2v2h2V18z M27,18h-2v2h2V18z M31,18h-2v2h2V18z M35,18h-2v2h2V18z"  fill="#fff"/>
	<path d="M15,17h-2v-2h2V17z M19,15h-2v2h2V15z M23,15h-2v2h2V15z M27,15h-2v2h2V15z M31,15h-2v2h2V15z M35,15h-2v2h2V15z"  fill="#fff"/>
	<path d="M37,13v12H11V13H37 M37,11H11c-1.1,0-2,0.9-2,2v12c0,1.1,0.9,2,2,2h26c1.1,0,2-0.9,2-2V13C39,11.9,38.1,11,37,11L37,11z"  fill="#fff"/>
</svg>