<?xml version="1.0" encoding="utf-8"?>
<!-- Generator: Adobe Illustrator 22.1.0, SVG Export Plug-In . SVG Version: 6.00 Build 0)  -->
<svg version="1.1" id="Layer_1" xmlns="http://www.w3.org/2000/svg" xmlns:xlink="http://www.w3.org/1999/xlink" x="0px" y="0px"
	 viewBox="0 0 48 48" style="enable-background:new 0 0 48 48;" xml:space="preserve">
<style type="text/css">
	.st0{fill:#FFFFFF;}
</style>
<path class="st0" d="M20.7,31v-1.7h2.5V23L21,23.8L20.7,22l3-1h1.4v8.3h2.2V31H20.7z M33,35H15c-0.6,0-1-0.4-1-1V16c0-0.6,0.4-1,1-1
	h18c0.6,0,1,0.4,1,1v18C34,34.6,33.6,35,33,35z M16,33h16V17H16V33z M30,19c-0.6,0-1-0.4-1-1v-4c0-0.6,0.4-1,1-1s1,0.4,1,1v4
	C31,18.6,30.6,19,30,19z M26,19c-0.6,0-1-0.4-1-1v-4c0-0.6,0.4-1,1-1s1,0.4,1,1v4C27,18.6,26.6,19,26,19z M22,19c-0.6,0-1-0.4-1-1
	v-4c0-0.6,0.4-1,1-1s1,0.4,1,1v4C23,18.6,22.6,19,22,19z M18,19c-0.6,0-1-0.4-1-1v-4c0-0.6,0.4-1,1-1s1,0.4,1,1v4
	C19,18.6,18.6,19,18,19z"/>
</svg>
