<?xml version="1.0" encoding="utf-8"?>
<!-- Generator: Adobe Illustrator 22.1.0, SVG Export Plug-In . SVG Version: 6.00 Build 0)  -->
<svg version="1.1" id="Layer_1" xmlns="http://www.w3.org/2000/svg" xmlns:xlink="http://www.w3.org/1999/xlink" x="0px" y="0px"
	 viewBox="0 0 48 48" style="enable-background:new 0 0 48 48;" xml:space="preserve">
<style type="text/css">
	.st0{fill:#FFFFFF;}
</style>
<path class="st0" d="M33.8,26c0.1-0.6,0.2-1.3,0.2-2s-0.1-1.4-0.2-2h-2.1c-0.2-0.7-0.5-1.4-0.9-2.1l1.5-1.5
	c-0.7-1.1-1.7-2.1-2.8-2.8L28,17.1c-0.6-0.4-1.3-0.7-2.1-0.9v-2.1c-0.6-0.1-1.3-0.2-2-0.2s-1.4,0.1-2,0.2v2.1
	c-0.7,0.2-1.4,0.5-2.1,0.9l-1.5-1.5c-1.1,0.7-2.1,1.7-2.8,2.8l1.5,1.5c-0.4,0.6-0.7,1.3-0.9,2.1H14c-0.1,0.6-0.2,1.3-0.2,2
	s0.1,1.4,0.2,2h2.1c0.2,0.7,0.5,1.4,0.9,2.1l-1.5,1.5c0.7,1.1,1.7,2.1,2.8,2.8l1.5-1.5c0.6,0.4,1.3,0.7,2.1,0.9v2.1
	c0.6,0.1,1.3,0.2,2,0.2s1.4-0.1,2-0.2v-2.1c0.7-0.2,1.4-0.5,2.1-0.9l1.5,1.5c1.1-0.7,2.1-1.7,2.8-2.8l-1.5-1.5
	c0.4-0.6,0.7-1.3,0.9-2.1C31.7,26,33.8,26,33.8,26z M24,29c-2.8,0-5-2.2-5-5s2.2-5,5-5s5,2.2,5,5S26.8,29,24,29z"/>
</svg>
