<?xml version="1.0" encoding="utf-8"?>
<!-- Generator: Adobe Illustrator 22.1.0, SVG Export Plug-In . SVG Version: 6.00 Build 0)  -->
<svg version="1.1" id="Layer_1" xmlns="http://www.w3.org/2000/svg" xmlns:xlink="http://www.w3.org/1999/xlink" x="0px" y="0px"
	 viewBox="0 0 48 48" style="enable-background:new 0 0 48 48;" xml:space="preserve">
<style type="text/css">
	.st0{fill:#FFFFFF;}
</style>
<path class="st0" d="M34.6,22.7l-9.9-9.9c-0.4-0.4-1-0.4-1.4,0l-9.9,9.9c-0.4,0.4-0.4,1,0,1.4s1,0.4,1.4,0l2.2-2.2V32
	c0,0.6,0.4,1,1,1h4v-5c0-1.1,0.9-2,2-2s2,0.9,2,2v5h4c0.6,0,1-0.4,1-1V21.8l2.2,2.2c0.2,0.2,0.4,0.3,0.7,0.3s0.5,0,0.7-0.2
	C35,23.7,35,23.1,34.6,22.7z M24,23.9c-1.1,0-2-0.9-2-2s0.9-2,2-2s2,0.9,2,2C26,23.1,25.1,23.9,24,23.9z M23.9,15L23.9,15h0.2
	C24,15,24,15,23.9,15z"/>
</svg>
