<?xml version="1.0" encoding="utf-8"?>
<!-- Generator: Adobe Illustrator 22.1.0, SVG Export Plug-In . SVG Version: 6.00 Build 0)  -->
<svg version="1.1" id="Layer_1" xmlns="http://www.w3.org/2000/svg" xmlns:xlink="http://www.w3.org/1999/xlink" x="0px" y="0px"
	 viewBox="0 0 48 48" style="enable-background:new 0 0 48 48;" xml:space="preserve">
<style type="text/css">
	.st0{fill:#FFFFFF;}
</style>
<path class="st0" d="M24,33c-3.3,0-6.3-1.8-7.8-4.5c1-1.5,5.8-1.7,5.8-3.5c0-0.4-0.1-0.7-0.3-1C21,22.8,21,21.2,21,20
	c0-1.9,1.3-3,3-3s3,1.1,3,3c0,1.2,0,2.8-0.7,3.9c-0.2,0.3-0.3,0.7-0.3,1c0,1.9,4.8,2,5.8,3.5C30.3,31.2,27.3,33,24,33z"/>
</svg>
